<svg width="1024" height="1024" viewBox="0 0 1024 1024" fill="none" xmlns="http://www.w3.org/2000/svg">
  <rect width="1024" height="1024" rx="512" fill="#F5F0EC"/>
  <path d="M512 256C370.4 256 256 370.4 256 512C256 653.6 370.4 768 512 768C653.6 768 768 653.6 768 512C768 370.4 653.6 256 512 256ZM512 704C398.4 704 320 625.6 320 512C320 398.4 398.4 320 512 320C625.6 320 704 398.4 704 512C704 625.6 625.6 704 512 704Z" fill="#000000"/>
  <path d="M512 384C441.6 384 384 441.6 384 512C384 582.4 441.6 640 512 640C582.4 640 640 582.4 640 512C640 441.6 582.4 384 512 384Z" fill="#000000"/>
</svg> 